<?xml version="1.0" encoding="utf-8"?>
<!-- Generator: Adobe Illustrator 20.1.0, SVG Export Plug-In . SVG Version: 6.00 Build 0)  -->
<svg version="1.1"
	 id="svg4262" inkscape:export-filename="/home/bigeagle/Dropbox/TUNA/logo-flat.png" inkscape:export-xdpi="15.018864" inkscape:export-ydpi="15.018864" inkscape:version="0.48.5 r10040" sodipodi:docname="logo-flat.svg" xmlns:cc="http://creativecommons.org/ns#" xmlns:dc="http://purl.org/dc/elements/1.1/" xmlns:inkscape="http://www.inkscape.org/namespaces/inkscape" xmlns:rdf="http://www.w3.org/1999/02/22-rdf-syntax-ns#" xmlns:sodipodi="http://sodipodi.sourceforge.net/DTD/sodipodi-0.dtd" xmlns:svg="http://www.w3.org/2000/svg"
	 xmlns="http://www.w3.org/2000/svg" xmlns:xlink="http://www.w3.org/1999/xlink" x="0px" y="0px" viewBox="0 0 345 345"
	 style="enable-background:new 0 0 345 345;" xml:space="preserve">
<style type="text/css">
	.st0{fill:#BEE2E9;}
	.st1{fill:#19B5FE;}
	.st2{fill:#1E8BC3;}
	.st3{fill:#815CB7;}
	.st4{fill:#2F4B68;}
	.st5{fill:#FFFFFF;}
	.st6{fill:#9C5CB7;}
	.st7{font-family:'SourceSansPro-Bold';}
	.st8{font-size:11px;}
</style>
<sodipodi:namedview  bordercolor="#666666" borderopacity="1.0" fit-margin-bottom="0" fit-margin-left="0" fit-margin-right="0" fit-margin-top="0" id="base" inkscape:current-layer="layer1" inkscape:cx="428.59762" inkscape:cy="136.21657" inkscape:document-units="px" inkscape:guide-bbox="true" inkscape:pageopacity="0.0" inkscape:pageshadow="2" inkscape:window-height="1057" inkscape:window-maximized="1" inkscape:window-width="1920" inkscape:window-x="0" inkscape:window-y="0" inkscape:zoom="1.4" pagecolor="#ffffff" showgrid="false" showguides="true">
	</sodipodi:namedview>
<g id="layer1" transform="translate(-0.54368288,98.464137)" inkscape:groupmode="layer" inkscape:label="Layer 1">
	<g id="g9281" transform="matrix(1.9893579,0,0,1.9933073,-2301.215,-4776.9484)">
		
			<path id="path9214" inkscape:connector-curvature="0" inkscape:export-filename="/home/bigeagle/workspace/tuna/mirror-web/static/img/logo-small.png" inkscape:export-xdpi="19.55286" inkscape:export-ydpi="19.55286" sodipodi:nodetypes="cccccc" class="st0" d="
			M1201.9,2414.8c-8.2,2.4-12.7,3.3-19.5,8.4c-4.8,3.5-9.6,9.6-9.6,9.6s7.6-3.9,13.9-5.3c6.3-1.4,9.2-1.5,11.2-1.4
			C1198.3,2422.5,1200.8,2418.1,1201.9,2414.8L1201.9,2414.8z"/>
		
			<path id="path9177" inkscape:connector-curvature="0" inkscape:export-filename="/home/bigeagle/workspace/tuna/mirror-web/static/img/logo-small.png" inkscape:export-xdpi="19.55286" inkscape:export-ydpi="19.55286" sodipodi:nodetypes="scsssccscssssscsss" class="st1" d="
			M1250.6,2372.4c-4.7,0-9.2,0.6-13,1.8c-11.5,3.4-18.7,9.5-23,13.2c-8.3,7.1-13.9,19.4-16.4,29.5s-2.1,24.7,1.7,35.5
			c3.8,10.9,14,21.5,20.9,26.2c9,6,20,8.6,30.4,8.6c-2.3-0.1-4.7-0.4-7.2-0.8c-6.4-1.1-13-3.2-18.9-7.2c-5.9-4.4-7.3-7-8.8-11.5
			c-1.5-4.5-0.9-11.2,0.8-15.3c1.8-4.4,7.8-10.4,15.4-15.7c7.6-5.3,18.9-9.8,29.8-13.9s19.9-9.7,26-17c5.7-6.7,5.9-16.6,5.9-16.6
			s-4.5-5.2-11.3-9.1c-3.9-2.3-10.1-5.1-19.6-6.7C1260,2372.7,1255.2,2372.4,1250.6,2372.4L1250.6,2372.4z"/>
		
			<path id="path9200" inkscape:connector-curvature="0" inkscape:export-filename="/home/bigeagle/workspace/tuna/mirror-web/static/img/logo-small.png" inkscape:export-xdpi="19.55286" inkscape:export-ydpi="19.55286" sodipodi:nodetypes="csscsc" class="st2" d="
			M1239.4,2388.5c0,0-5.2,10-10.9,14.9c-3.9,3.3-7.2,5.6-14.3,8.2c-6.3,2.3-15.6,4.1-15.6,4.1s1.6-6.8,3.1-7.7
			C1205.8,2405.5,1239.4,2388.5,1239.4,2388.5z"/>
		
			<path id="path9198" inkscape:connector-curvature="0" inkscape:export-filename="/home/bigeagle/workspace/tuna/mirror-web/static/img/logo-small.png" inkscape:export-xdpi="19.55286" inkscape:export-ydpi="19.55286" sodipodi:nodetypes="cssscssc" class="st3" d="
			M1239.3,2388.6c0,0-5.2,8-10.5,12.3c-5.4,4.3-14.3,9.5-25.7,10.5c-11.4,1.1-21.2,3.9-27.9,8c-6.6,4.1-11.8,8.9-11.8,8.9
			s5.7-11.4,12.1-19.1c6.4-7.7,17.7-13.9,27.9-17.1C1213.2,2389.3,1229.7,2389.3,1239.3,2388.6L1239.3,2388.6z"/>
		
			<path id="path9226" inkscape:connector-curvature="0" inkscape:export-filename="/home/bigeagle/workspace/tuna/mirror-web/static/img/logo-small.png" inkscape:export-xdpi="19.55286" inkscape:export-ydpi="19.55286" sodipodi:nodetypes="cscscsc" class="st0" d="
			M1235,2433.7c-5,5-5.6,6.4-7.2,11.1c-2.1,6.4-1.2,16-1.2,16s-2.2-2.1-3.9-8.5c-1.3-4.9-1.2-8.7-1.2-8.7s1.6-2.7,5.6-5.6
			C1231.1,2435.1,1235,2433.7,1235,2433.7L1235,2433.7z"/>
		
			<path id="path9240" inkscape:connector-curvature="0" inkscape:export-filename="/home/bigeagle/workspace/tuna/mirror-web/static/img/logo-small.png" inkscape:export-xdpi="19.55286" inkscape:export-ydpi="19.55286" sodipodi:nodetypes="cscscsc" class="st3" d="
			M1271.5,2420.2c0,5.1,0.3,7.3-0.2,13.5c-0.4,5.8-2.6,10.3-2.6,10.3s0.1-4.6-0.6-8.4c-0.7-3.8-5-11-5-11s1-0.1,3.9-1.5
			C1270.3,2421.5,1271.5,2420.2,1271.5,2420.2z"/>
		
			<g id="g9275" transform="translate(-4.1964366,-0.31486783)" inkscape:export-filename="/home/bigeagle/workspace/tuna/mirror-web/static/img/logo-small.png" inkscape:export-xdpi="19.55286" inkscape:export-ydpi="19.55286">
			<path id="path9260" inkscape:connector-curvature="0" sodipodi:nodetypes="cccccccsacczzcccc" class="st4" d="M1244.5,2450v-10.8
				h5.5v10.8h9v5.2h-9c0,0,0,25.1,0,25.8c0,0.7,0.4,2.9,1.3,4c0.9,1.1,3.9,2.2,3.9,2.2s-3.3,0.1-4.7-0.2c-1.6-0.3-3.1-1.1-3.9-1.9
				c-0.8-0.8-2.1-2.1-2.1-4.4s0.1-25.5,0.1-25.5h-7.4v-5.2L1244.5,2450z"/>
			<path id="path9268" inkscape:connector-curvature="0" sodipodi:nodetypes="cszzzzcczssszcc" class="st4" d="M1282.7,2487.1
				c0,0,0-25.7,0-26.6c0-2.2,0.5-4.8,1.9-6.6c1.3-1.8,4.4-3.8,8.2-3.8s6.5,1.6,8,3.3c1.4,1.8,1.8,4.7,1.8,7s0,26.7,0,26.7h-5.1
				c0,0,0-28.5,0-29.4c0-0.9-0.4-2.7-1-3.3c-0.7-0.7-1.7-1.5-3.7-1.5c-2,0-2.8,0.9-3.4,1.4c-0.4,0.4-1.1,1.8-1.1,3.2
				c0,1.4-0.2,29.5-0.2,29.5L1282.7,2487.1z"/>
			<path id="path9262" inkscape:connector-curvature="0" sodipodi:nodetypes="cszzzzcczssszcc" class="st4" d="M1260.7,2450.1
				c0,0,0,24.4,0,25.3c0,2.5,0.4,4.8,1.9,7.4c1.5,2.6,4.3,4.3,8.1,4.3c3.8,0,6.9-1.8,8-3.7c1.1-1.9,1.8-3.9,1.8-7.8s0-25.4,0-25.4
				h-5.1c0,0,0,28,0,29s-0.4,3.1-1,3.8c-0.7,0.8-1.7,1.6-3.7,1.6c-2,0-2.8-1-3.4-1.6c-0.4-0.5-1.1-2-1.1-3.6s-0.2-29.2-0.2-29.2
				L1260.7,2450.1z"/>
			<path id="path9270" inkscape:connector-curvature="0" class="st4" d="M1313.2,2450.1c-2,0-4.4,0.1-6.2,1.5c-1.8,1.4-2,3.7-2,3.7
				s1.8-1.5,2.6-1.8c1.6-0.8,3.2-0.8,5.3-0.8c1.5,0,2.9,0,4.7,1.3c1,0.8,1.1,1.2,1.1,2.9v7.8h-7c-2.6,0-4.4,1.4-5.6,2.6
				s-2.1,3.1-2.1,7.2v5.1c0,3.5,0.6,4.5,1.2,5.8c0.8,1.5,2.9,2,3.7,2h6.5c1.7,0,3.4-0.7,5.1-2.1c2.3-2,2.6-5,2.6-8v-19.5
				c0-2.2,0.1-3.4-2-5.4C1319,2450.4,1316.1,2450.1,1313.2,2450.1z M1318.7,2466.2c0,0,0,10.8,0,13.1s-0.6,2.7-1.3,3.5
				c-0.8,0.8-2.1,0.9-3.9,0.9c-1.7,0-2.7-0.1-3.8-1.2c-1.1-1.1-1-2.8-1-5.1c0-2.6-0.4-5.3,0.6-7.6s2-2.8,3-3.1
				C1313.3,2466.4,1314.4,2466.3,1318.7,2466.2z"/>
		</g>
	</g>
	
		<path id="path5116" inkscape:export-filename="/home/bigeagle/workspace/tuna/mirror-web/static/img/logo-small.png" inkscape:export-xdpi="19.55286" inkscape:export-ydpi="19.55286" sodipodi:cx="222.85715" sodipodi:cy="31.826468" sodipodi:rx="12.142858" sodipodi:ry="11.607142" sodipodi:type="arc" class="st5" d="
		M240.2-18c0,4.5-3.8,8.1-8.5,8.1c-4.7,0-8.5-3.6-8.5-8.1c0,0,0,0,0,0c0-4.5,3.8-8.1,8.5-8.1C236.4-26.1,240.2-22.5,240.2-18
		C240.2-18,240.2-18,240.2-18z"/>
	<path id="rect5118" class="st6" d="M110.3,184.6h211.5c0.2,0,0.3,0.2,0.3,0.3v13.6c0,0.2-0.2,0.3-0.3,0.3H110.3
		c-0.2,0-0.3-0.2-0.3-0.3V185C110,184.8,110.1,184.6,110.3,184.6z"/>
	<text transform="matrix(1 0 0 1 114.0906 195.2732)" class="st5 st7 st8">Tsinghua University TUNA Association</text>
</g>
</svg>
